<svg className="wave" xmlns="http://www.w3.org/2000/svg" viewBox="0 0 1440 320">
  <path fill="#212529" fillOpacity="1"
    d="M0,288L6.2,288C12.3,288,25,288,37,245.3C49.2,203,62,117,74,106.7C86.2,96,98,160,111,186.7C123.1,213,135,203,148,202.7C160,203,172,213,185,208C196.9,203,209,181,222,165.3C233.8,149,246,139,258,133.3C270.8,128,283,128,295,117.3C307.7,107,320,85,332,112C344.6,139,357,213,369,218.7C381.5,224,394,160,406,128C418.5,96,431,96,443,101.3C455.4,107,468,117,480,133.3C492.3,149,505,171,517,186.7C529.2,203,542,213,554,197.3C566.2,181,578,139,591,106.7C603.1,75,615,53,628,53.3C640,53,652,75,665,101.3C676.9,128,689,160,702,170.7C713.8,181,726,171,738,186.7C750.8,203,763,245,775,234.7C787.7,224,800,160,812,117.3C824.6,75,837,53,849,48C861.5,43,874,53,886,90.7C898.5,128,911,192,923,218.7C935.4,245,948,235,960,208C972.3,181,985,139,997,144C1009.2,149,1022,203,1034,224C1046.2,245,1058,235,1071,213.3C1083.1,192,1095,160,1108,138.7C1120,117,1132,107,1145,106.7C1156.9,107,1169,117,1182,138.7C1193.8,160,1206,192,1218,208C1230.8,224,1243,224,1255,202.7C1267.7,181,1280,139,1292,133.3C1304.6,128,1317,160,1329,186.7C1341.5,213,1354,235,1366,224C1378.5,213,1391,171,1403,165.3C1415.4,160,1428,192,1434,208L1440,224L1440,0L1433.8,0C1427.7,0,1415,0,1403,0C1390.8,0,1378,0,1366,0C1353.8,0,1342,0,1329,0C1316.9,0,1305,0,1292,0C1280,0,1268,0,1255,0C1243.1,0,1231,0,1218,0C1206.2,0,1194,0,1182,0C1169.2,0,1157,0,1145,0C1132.3,0,1120,0,1108,0C1095.4,0,1083,0,1071,0C1058.5,0,1046,0,1034,0C1021.5,0,1009,0,997,0C984.6,0,972,0,960,0C947.7,0,935,0,923,0C910.8,0,898,0,886,0C873.8,0,862,0,849,0C836.9,0,825,0,812,0C800,0,788,0,775,0C763.1,0,751,0,738,0C726.2,0,714,0,702,0C689.2,0,677,0,665,0C652.3,0,640,0,628,0C615.4,0,603,0,591,0C578.5,0,566,0,554,0C541.5,0,529,0,517,0C504.6,0,492,0,480,0C467.7,0,455,0,443,0C430.8,0,418,0,406,0C393.8,0,382,0,369,0C356.9,0,345,0,332,0C320,0,308,0,295,0C283.1,0,271,0,258,0C246.2,0,234,0,222,0C209.2,0,197,0,185,0C172.3,0,160,0,148,0C135.4,0,123,0,111,0C98.5,0,86,0,74,0C61.5,0,49,0,37,0C24.6,0,12,0,6,0L0,0Z">
  </path>
</svg>